<?xml version="1.0" encoding="utf-8"?>
<!-- Generator: Adobe Illustrator 22.0.1, SVG Export Plug-In . SVG Version: 6.00 Build 0)  -->
<svg version="1.1" id="Camada_1" xmlns="http://www.w3.org/2000/svg" xmlns:xlink="http://www.w3.org/1999/xlink" x="0px" y="0px"
	 viewBox="0 0 512 512" style="enable-background:new 0 0 512 512;" xml:space="preserve">
<style type="text/css">
	.st0{clip-path:url(#SVGID_2_);}
	.st1{fill-rule:evenodd;clip-rule:evenodd;fill:#FAA818;}
	.st2{opacity:0.1;fill-rule:evenodd;clip-rule:evenodd;fill:#CB8205;}
</style>
<g>
	<defs>
		<path id="SVGID_1_" d="M499,511H12c-6.6,0-12-5.4-12-12V12C0,5.4,5.4,0,12,0h487c6.6,0,12,5.4,12,12v487
			C511,505.6,505.6,511,499,511z"/>
	</defs>
	<clipPath id="SVGID_2_">
		<use xlink:href="#SVGID_1_"  style="overflow:visible;"/>
	</clipPath>
	<g class="st0">
		<rect class="st1" width="722.6" height="511"/>
		<path class="st2" d="M127.2,128.5L97.8,16.6C56.1,43.3,22.6,80.2,0,123v265.3c28.7,54.4,74,96.8,127.6,122.6h100.5l-21.9-83.1
			c-15.1-2-29.1-5.7-42.7-11.2c-49.1-20.1-81.1-57.8-95.7-113c-13.5-51.5-6-97.2,22.5-137.2C100.5,152.2,112.8,139.5,127.2,128.5"/>
		<path class="st2" d="M230.1,141.4c-33.5,8.7-58.8,25.5-75.9,50.1c-19.2,28-24.2,59.4-15.1,94.4c9,34,28.4,58.1,58.2,72.6
			c27.3,13.3,59.1,15,95.4,5.5c17.8-4.7,34.7-11.3,50.8-19.9c16.1-8.7,29.7-18.1,40.4-28.6l-11.5-44l-79.2,20.9
			c-4.8,1.3-8.3,3.3-10.2,6.2c-1.8,2.8-2.8,7.1-2.8,13.2l-7.7,2l-19.7-74.5l7.7-2c3,5.3,5.9,8.7,9.1,10.2c2.9,1.4,6.8,1.6,11.7,0.3
			l151.9-40l2.1,7.6c-5.1,2.9-8.4,6.1-10,9.2c-1.6,3.1-1.8,7.1-0.5,11.9l17.3,65.6c1.3,5,3.4,8.4,6.1,10.3c2.8,1.9,7.3,2.8,13.3,2.9
			l1.6,5.7c-28.4,28.1-57.7,50.6-87.7,67.9l27.8,105.4c101-64.5,153.5-188.9,121.3-311C502.5,99.7,445.3,34.7,373,0H272.9l20.4,77.7
			c11.3,0.4,23.6,1.3,36.7,2.8c11.9,1.4,20,1.5,24.5,0.3c3.3-1,6.6-3.6,10.1-8.4l7.7,1.6l-17.5,86.7l-7.7-1.6
			c-1.6-5.1-3.3-8.6-5-10.5c-1.9-2.1-5.4-4.1-10.7-6.2c-11.4-4.6-27.1-7.1-46.8-7.3C264.8,135,246.5,137,230.1,141.4"/>
		<path class="st2" d="M167.6,0l24.9,94.3c7.8-2.8,16.2-5.4,24.9-7.6c1.3-0.4,2.6-0.7,3.9-1L198.7,0H167.6z"/>
		<path class="st2" d="M300,420.1c-7.1,1.9-13.9,3.5-20.4,4.8l22.7,86.1h30.9l-24.6-93.3C305.8,418.6,303,419.4,300,420.1"/>
	</g>
</g>
</svg>
